<svg width="52" height="52" viewBox="0 0 52 52" fill="none" xmlns="http://www.w3.org/2000/svg">
<path fill-rule="evenodd" clip-rule="evenodd" d="M27.4262 26L31.7046 21.7216C32.0985 21.3277 32.0985 20.6892 31.7046 20.2954C31.3108 19.9016 30.6723 19.9016 30.2785 20.2954L26 24.5739L21.7215 20.2954C21.3276 19.9015 20.6892 19.9015 20.2953 20.2954C19.9016 20.6892 19.9016 21.3277 20.2953 21.7215L24.5738 26L20.2953 30.2785C19.9016 30.6723 19.9016 31.3108 20.2953 31.7046C20.6892 32.0985 21.3276 32.0985 21.7215 31.7046L26 27.4261L30.2785 31.7046C30.6723 32.0985 31.3108 32.0985 31.7046 31.7046C32.0985 31.3108 32.0985 30.6723 31.7046 30.2785L27.4262 26Z" fill="#292929"/>
<path d="M26 50C12.7452 50 2 39.2548 2 26H-2C-2 41.464 10.536 54 26 54V50ZM50 26C50 39.2548 39.2548 50 26 50V54C41.464 54 54 41.464 54 26H50ZM26 2C39.2548 2 50 12.7452 50 26H54C54 10.536 41.464 -2 26 -2V2ZM26 -2C10.536 -2 -2 10.536 -2 26H2C2 12.7452 12.7452 2 26 2V-2Z" fill="#F1CDB3"/>
</svg>
